#Comment line ignore any data following # character 
#Hierarchical Translation and Rotation (.htr) file 
[Header]	
#Header keywords are followed by a single value 
FileType HTR		#Single word string
DataType HTRS		#Translation followed by rotation and scale data
FileVersion 1		#integer
NumSegments 84		#integer
NumFrames 2		#integer
DataFrameRate 30		#integer, data frame rate in this file
EulerRotationOrder ZYX
CalibrationUnits mm
RotationUnits Degrees
GlobalAxisofGravity Y
BoneLengthAxis Y
ScaleFactor 1.00
[SegmentNames&Hierarchy]
#CHILD	PARENT
MASTER GLOBAL
root MASTER
chest root
L_mid_tent01 root
R_mid_tent01 root
spine01 root
Bip01_Neck chest
L_humerus chest
R_humerus chest
weapon_bone chest
Bip01_Head Bip01_Neck
eye_left_bone Bip01_Head
eye_right_bone Bip01_Head
L_forearm L_humerus
L_front_hand L_forearm
L_weapon_bone L_forearm
L_front_hand01_01 L_front_hand
L_front_hand02_01 L_front_hand
L_front_hand03_01 L_front_hand
L_front_hand01_02 L_front_hand01_01
L_front_hand02_02 L_front_hand02_01
L_front_hand03_02 L_front_hand03_01
R_forearm R_humerus
R_front_hand R_forearm
R_weapon_bone R_forearm
R_front_hand01_01 R_front_hand
R_front_hand02_01 R_front_hand
R_front_hand03_01 R_front_hand
R_front_hand01_02 R_front_hand01_01
R_front_hand02_02 R_front_hand02_01
R_front_hand03_02 R_front_hand03_01
null_rope01_connect L_mid_tent01
Rope1_Seg01 null_rope01_connect
Rope1_Seg02 Rope1_Seg01
Rope1_Seg03 Rope1_Seg02
Rope1_Seg04 Rope1_Seg03
Rope1_Seg05 Rope1_Seg04
Rope1_Seg06 Rope1_Seg05
Rope1_Seg07 Rope1_Seg06
Rope1_Seg09 Rope1_Seg07
L_mid_hand01 Rope1_Seg09
L_mid_hand02 Rope1_Seg09
L_mid_hand03 Rope1_Seg09
null_rope02_connect R_mid_tent01
Rope2_Seg01 null_rope02_connect
Rope2_Seg02 Rope2_Seg01
Rope2_Seg03 Rope2_Seg02
Rope2_Seg04 Rope2_Seg03
Rope2_Seg05 Rope2_Seg04
Rope2_Seg06 Rope2_Seg05
Rope2_Seg07 Rope2_Seg06
Rope2_Seg09 Rope2_Seg07
R_mid_hand01 Rope2_Seg09
R_mid_hand02 Rope2_Seg09
R_mid_hand03 Rope2_Seg09
spine02 spine01
spine03 spine02
pelvis spine03
null_rope03_connect pelvis
null_rope04_connect pelvis
Rope3_Seg01 null_rope03_connect
Rope3_Seg02 Rope3_Seg01
Rope3_Seg03 Rope3_Seg02
Rope3_Seg04 Rope3_Seg03
Rope3_Seg05 Rope3_Seg04
Rope3_Seg06 Rope3_Seg05
Rope3_Seg07 Rope3_Seg06
Rope3_Seg08 Rope3_Seg07
Rope3_Seg09 Rope3_Seg08
R_rear_hand01 Rope3_Seg09
R_rear_hand02 Rope3_Seg09
R_rear_hand03 Rope3_Seg09
Rope4_Seg01 null_rope04_connect
Rope4_Seg02 Rope4_Seg01
Rope4_Seg03 Rope4_Seg02
Rope4_Seg04 Rope4_Seg03
Rope4_Seg05 Rope4_Seg04
Rope4_Seg06 Rope4_Seg05
Rope4_Seg07 Rope4_Seg06
Rope4_Seg08 Rope4_Seg07
Rope4_Seg09 Rope4_Seg08
L_rear_hand01 Rope4_Seg09
L_rear_hand02 Rope4_Seg09
L_rear_hand03 Rope4_Seg09
[BasePosition]
#SegmentName Tx, Ty, Tz, Rx, Ry, Rz, BoneLength
MASTER 0.000000 0.000000 0.000000 -90.000000 0.000000 0.000000 10.000000 
root 0.000000 0.000000 0.000000 0.000000 0.000000 0.000000 10.000000 
chest 0.000000 0.000000 0.000000 0.000000 0.000000 0.000000 10.000000 
L_mid_tent01 0.000000 0.000000 0.000000 0.000000 0.000000 0.000000 10.000000 
R_mid_tent01 0.000000 0.000000 0.000000 0.000000 0.000000 0.000000 10.000000 
spine01 0.000000 0.000000 0.000000 0.000000 0.000000 0.000000 10.000000 
Bip01_Neck 0.000000 0.000000 0.000000 0.000000 0.000000 0.000000 10.000000 
L_humerus 0.000000 0.000000 0.000000 0.000000 0.000000 0.000000 10.000000 
R_humerus 0.000000 0.000000 0.000000 0.000000 0.000000 0.000000 10.000000 
weapon_bone 0.000000 0.000000 0.000000 0.000000 0.000000 0.000000 10.000000 
Bip01_Head 0.000000 0.000000 0.000000 0.000000 0.000000 0.000000 10.000000 
eye_left_bone 0.000000 0.000000 0.000000 0.000000 0.000000 0.000000 10.000000 
eye_right_bone 0.000000 0.000000 0.000000 0.000000 0.000000 0.000000 10.000000 
L_forearm 0.000000 0.000000 0.000000 0.000000 0.000000 0.000000 10.000000 
L_front_hand 0.000000 0.000000 0.000000 0.000000 0.000000 0.000000 10.000000 
L_weapon_bone 0.000000 0.000000 0.000000 0.000000 0.000000 0.000000 10.000000 
L_front_hand01_01 0.000000 0.000000 0.000000 0.000000 0.000000 0.000000 10.000000 
L_front_hand02_01 0.000000 0.000000 0.000000 0.000000 0.000000 0.000000 10.000000 
L_front_hand03_01 0.000000 0.000000 0.000000 0.000000 0.000000 0.000000 10.000000 
L_front_hand01_02 0.000000 0.000000 0.000000 0.000000 0.000000 0.000000 10.000000 
L_front_hand02_02 0.000000 0.000000 0.000000 0.000000 0.000000 0.000000 10.000000 
L_front_hand03_02 0.000000 0.000000 0.000000 0.000000 0.000000 0.000000 10.000000 
R_forearm 0.000000 0.000000 0.000000 0.000000 0.000000 0.000000 10.000000 
R_front_hand 0.000000 0.000000 0.000000 0.000000 0.000000 0.000000 10.000000 
R_weapon_bone 0.000000 0.000000 0.000000 0.000000 0.000000 0.000000 10.000000 
R_front_hand01_01 0.000000 0.000000 0.000000 0.000000 0.000000 0.000000 10.000000 
R_front_hand02_01 0.000000 0.000000 0.000000 0.000000 0.000000 0.000000 10.000000 
R_front_hand03_01 0.000000 0.000000 0.000000 0.000000 0.000000 0.000000 10.000000 
R_front_hand01_02 0.000000 0.000000 0.000000 0.000000 0.000000 0.000000 10.000000 
R_front_hand02_02 0.000000 0.000000 0.000000 0.000000 0.000000 0.000000 10.000000 
R_front_hand03_02 0.000000 0.000000 0.000000 0.000000 0.000000 0.000000 10.000000 
null_rope01_connect 0.000000 0.000000 0.000000 0.000000 0.000000 0.000000 10.000000 
Rope1_Seg01 0.000000 0.000000 0.000000 0.000000 0.000000 0.000000 10.000000 
Rope1_Seg02 0.000000 0.000000 0.000000 0.000000 0.000000 0.000000 10.000000 
Rope1_Seg03 0.000000 0.000000 0.000000 0.000000 0.000000 0.000000 10.000000 
Rope1_Seg04 0.000000 0.000000 0.000000 0.000000 0.000000 0.000000 10.000000 
Rope1_Seg05 0.000000 0.000000 0.000000 0.000000 0.000000 0.000000 10.000000 
Rope1_Seg06 0.000000 0.000000 0.000000 0.000000 0.000000 0.000000 10.000000 
Rope1_Seg07 0.000000 0.000000 0.000000 0.000000 0.000000 0.000000 10.000000 
Rope1_Seg09 0.000000 0.000000 0.000000 0.000000 0.000000 0.000000 10.000000 
L_mid_hand01 0.000000 0.000000 0.000000 0.000000 0.000000 0.000000 10.000000 
L_mid_hand02 0.000000 0.000000 0.000000 0.000000 0.000000 0.000000 10.000000 
L_mid_hand03 0.000000 0.000000 0.000000 0.000000 0.000000 0.000000 10.000000 
null_rope02_connect 0.000000 0.000000 0.000000 0.000000 0.000000 0.000000 10.000000 
Rope2_Seg01 0.000000 0.000000 0.000000 0.000000 0.000000 0.000000 10.000000 
Rope2_Seg02 0.000000 0.000000 0.000000 0.000000 0.000000 0.000000 10.000000 
Rope2_Seg03 0.000000 0.000000 0.000000 0.000000 0.000000 0.000000 10.000000 
Rope2_Seg04 0.000000 0.000000 0.000000 0.000000 0.000000 0.000000 10.000000 
Rope2_Seg05 0.000000 0.000000 0.000000 0.000000 0.000000 0.000000 10.000000 
Rope2_Seg06 0.000000 0.000000 0.000000 0.000000 0.000000 0.000000 10.000000 
Rope2_Seg07 0.000000 0.000000 0.000000 0.000000 0.000000 0.000000 10.000000 
Rope2_Seg09 0.000000 0.000000 0.000000 0.000000 0.000000 0.000000 10.000000 
R_mid_hand01 0.000000 0.000000 0.000000 0.000000 0.000000 0.000000 10.000000 
R_mid_hand02 0.000000 0.000000 0.000000 0.000000 0.000000 0.000000 10.000000 
R_mid_hand03 0.000000 0.000000 0.000000 0.000000 0.000000 0.000000 10.000000 
spine02 0.000000 0.000000 0.000000 0.000000 0.000000 0.000000 10.000000 
spine03 0.000000 0.000000 0.000000 0.000000 0.000000 0.000000 10.000000 
pelvis 0.000000 0.000000 0.000000 0.000000 0.000000 0.000000 10.000000 
null_rope03_connect 0.000000 0.000000 0.000000 0.000000 0.000000 0.000000 10.000000 
null_rope04_connect 0.000000 0.000000 0.000000 0.000000 0.000000 0.000000 10.000000 
Rope3_Seg01 0.000000 0.000000 0.000000 0.000000 0.000000 0.000000 10.000000 
Rope3_Seg02 0.000000 0.000000 0.000000 0.000000 0.000000 0.000000 10.000000 
Rope3_Seg03 0.000000 0.000000 0.000000 0.000000 0.000000 0.000000 10.000000 
Rope3_Seg04 0.000000 0.000000 0.000000 0.000000 0.000000 0.000000 10.000000 
Rope3_Seg05 0.000000 0.000000 0.000000 0.000000 0.000000 0.000000 10.000000 
Rope3_Seg06 0.000000 0.000000 0.000000 0.000000 0.000000 0.000000 10.000000 
Rope3_Seg07 0.000000 0.000000 0.000000 0.000000 0.000000 0.000000 10.000000 
Rope3_Seg08 0.000000 0.000000 0.000000 0.000000 0.000000 0.000000 10.000000 
Rope3_Seg09 0.000000 0.000000 0.000000 0.000000 0.000000 0.000000 10.000000 
R_rear_hand01 0.000000 0.000000 0.000000 0.000000 0.000000 0.000000 10.000000 
R_rear_hand02 0.000000 0.000000 0.000000 0.000000 0.000000 0.000000 10.000000 
R_rear_hand03 0.000000 0.000000 0.000000 0.000000 0.000000 0.000000 10.000000 
Rope4_Seg01 0.000000 0.000000 0.000000 0.000000 0.000000 0.000000 10.000000 
Rope4_Seg02 0.000000 0.000000 0.000000 0.000000 0.000000 0.000000 10.000000 
Rope4_Seg03 0.000000 0.000000 0.000000 0.000000 0.000000 0.000000 10.000000 
Rope4_Seg04 0.000000 0.000000 0.000000 0.000000 0.000000 0.000000 10.000000 
Rope4_Seg05 0.000000 0.000000 0.000000 0.000000 0.000000 0.000000 10.000000 
Rope4_Seg06 0.000000 0.000000 0.000000 0.000000 0.000000 0.000000 10.000000 
Rope4_Seg07 0.000000 0.000000 0.000000 0.000000 0.000000 0.000000 10.000000 
Rope4_Seg08 0.000000 0.000000 0.000000 0.000000 0.000000 0.000000 10.000000 
Rope4_Seg09 0.000000 0.000000 0.000000 0.000000 0.000000 0.000000 10.000000 
L_rear_hand01 0.000000 0.000000 0.000000 0.000000 0.000000 0.000000 10.000000 
L_rear_hand02 0.000000 0.000000 0.000000 0.000000 0.000000 0.000000 10.000000 
L_rear_hand03 0.000000 0.000000 0.000000 0.000000 0.000000 0.000000 10.000000 
#Beginning of Data. Separated by tabs
#Fr	Tx	Ty	Tz	Rx	Ry	Rz	SF
[MASTER]
31 0.000000 0.000000 0.000000 0.001660 0.001660 0.001660 0.000000
32 0.000000 0.000000 0.000000 0.001660 0.001660 0.001660 0.000000
[root]
31 125.001175 7.111381 1450.594849 -84.043213 -13.602465 -86.235214 1455.988159
32 87.104942 7.873789 1449.919800 -85.881058 -12.992677 -86.641853 1452.555298
[chest]
31 -84.512650 -34.090519 0.000000 0.393843 0.896430 166.532501 91.129311
32 -84.512650 -34.090519 0.000000 -0.072203 0.736853 166.255219 91.129311
[L_mid_tent01]
31 27.299116 22.179125 -249.918625 -18.564377 19.443190 24.644636 252.381607
32 27.299110 22.179148 -249.918625 -19.029396 18.238445 22.649118 252.381607
[R_mid_tent01]
31 23.228794 24.509907 226.238495 -172.124710 -22.872566 37.966866 228.744751
32 23.228794 24.509907 226.238495 -170.866302 -22.165310 35.572151 228.744751
[spine01]
31 -0.361383 -0.195265 0.000000 0.001940 0.001322 21.472393 0.410763
32 -0.361383 -0.195265 0.000000 0.001941 0.001320 21.568975 0.410763
[Bip01_Neck]
31 165.484543 71.581718 0.000119 176.643677 -1.657967 43.431911 180.302734
32 165.484543 71.581718 0.000119 176.643677 -1.657967 43.431911 180.302734
[L_humerus]
31 -13.983130 -135.272980 -120.471481 96.346504 79.766571 168.531525 181.680161
32 -13.983130 -135.272980 -120.471481 70.302986 80.908585 145.720459 181.680161
[R_humerus]
31 -13.983309 -135.273102 125.287651 -139.356979 -81.314339 -139.911316 184.909012
32 -13.983309 -135.273102 125.287651 -119.540115 -86.031181 -157.178787 184.909012
[weapon_bone]
31 235.964890 -300.705902 0.000000 0.000000 -89.951546 -128.212341 382.234833
32 235.964890 -300.705902 0.000000 0.000000 -89.951546 -128.212341 382.234833
[Bip01_Head]
31 213.444153 185.715546 11.776933 4.962490 2.797846 -43.898743 283.173737
32 213.444153 185.715546 11.776934 4.962490 2.797846 -43.898743 283.173737
[eye_left_bone]
31 -24.626970 125.451866 -64.772606 0.000000 -90.000000 -99.840431 143.318359
32 -24.626970 125.451866 -64.772606 0.000000 -90.000000 -99.840431 143.318359
[eye_right_bone]
31 -24.626970 125.451866 64.327362 0.000000 -89.965736 80.156380 143.117676
32 -24.626970 125.451866 64.327362 0.000000 -89.965736 80.156380 143.117676
[L_forearm]
31 322.776093 0.000000 -0.000119 0.000690 -0.002244 -124.167938 322.776093
32 322.776093 0.000000 -0.000119 0.000719 -0.002234 -125.690575 322.776093
[L_front_hand]
31 241.149185 -0.042021 -3.300071 149.893951 -1.837326 -27.423067 241.171753
32 241.149185 -0.042021 -3.300071 149.893951 -1.837326 -27.423067 241.171753
[L_weapon_bone]
31 156.183838 0.000000 0.000000 0.000014 0.000007 0.000001 156.183838
32 156.183838 0.000000 0.000000 0.000014 0.000007 0.000001 156.183838
[L_front_hand01_01]
31 86.095154 20.947098 -0.655860 -0.366594 -0.477154 75.385574 88.609184
32 86.095154 20.947098 -0.655860 -0.366594 -0.477154 75.385574 88.609184
[L_front_hand02_01]
31 86.935165 -11.437475 24.513514 154.399796 -59.883835 -61.369587 91.046425
32 86.935165 -11.437475 24.513514 154.399796 -59.883835 -61.369587 91.046425
[L_front_hand03_01]
31 86.637497 -14.123976 -20.424902 -153.913849 58.118122 -62.702866 90.126129
32 86.637497 -14.123976 -20.424902 -153.913849 58.118122 -62.702866 90.126129
[L_front_hand01_02]
31 71.020905 -0.000179 0.000030 0.000334 -0.002323 -106.379684 71.020905
32 71.020905 -0.000179 0.000030 0.000334 -0.002323 -106.379684 71.020905
[L_front_hand02_02]
31 71.020927 -0.000119 0.000060 0.000334 -0.002323 -106.379684 71.020927
32 71.020927 -0.000119 0.000060 0.000334 -0.002323 -106.379684 71.020927
[L_front_hand03_02]
31 71.020905 -0.000060 0.000060 0.000334 -0.002323 -106.379684 71.020905
32 71.020905 -0.000060 0.000060 0.000334 -0.002323 -106.379684 71.020905
[R_forearm]
31 322.776428 -0.000060 0.000030 0.186944 0.100668 -119.303711 322.776428
32 322.776428 -0.000060 0.000030 0.183110 0.110930 -121.475273 322.776428
[R_front_hand]
31 238.847015 -0.006795 2.210259 -8.879457 -10.642941 -26.315098 238.857239
32 238.847015 -0.006795 2.210259 -8.879457 -10.642941 -26.315098 238.857239
[R_weapon_bone]
31 155.664093 0.002503 -0.000030 0.003487 0.001180 -90.988930 155.664078
32 155.664093 0.002503 -0.000030 0.003487 0.001180 -90.988930 155.664078
[R_front_hand01_01]
31 87.624611 14.231146 22.918642 -154.633499 -59.950619 61.746044 91.683487
32 87.624611 14.231146 22.918642 -154.633499 -59.950619 61.746044 91.683487
[R_front_hand02_01]
31 89.356956 14.367283 -19.491137 154.602661 58.302849 63.744389 92.579636
32 89.356956 14.367283 -19.491137 154.602661 58.302849 63.744389 92.579636
[R_front_hand03_01]
31 87.286232 -22.307278 -0.143439 0.162155 -0.423168 -75.767921 90.091743
32 87.286232 -22.307278 -0.143439 0.162155 -0.423168 -75.767906 90.091743
[R_front_hand01_02]
31 71.020905 0.000060 0.000119 0.002323 -0.000334 106.381714 71.020905
32 71.020905 0.000060 0.000119 0.002323 -0.000334 106.381714 71.020905
[R_front_hand02_02]
31 71.020844 -0.000030 -0.000119 0.002323 -0.000334 106.381714 71.020836
32 71.020844 -0.000030 -0.000119 0.002323 -0.000334 106.381714 71.020836
[R_front_hand03_02]
31 71.020905 0.000000 0.000030 0.002323 -0.000334 106.381714 71.020905
32 71.020905 0.000000 0.000030 0.002323 -0.000334 106.381714 71.020905
[null_rope01_connect]
31 328.732483 0.000000 -0.000238 -149.585526 -71.018433 -134.590347 328.732483
32 328.732483 0.000000 -0.000238 -151.381744 -69.516998 -131.135208 328.732483
[Rope1_Seg01]
31 0.000057 -0.000043 0.000127 -25.816607 21.092424 -104.090584 0.000146
32 0.000060 -0.000042 0.000131 2.148267 14.675744 -108.562363 0.000151
[Rope1_Seg02]
31 139.999863 -0.000179 0.000000 1.094574 -10.347697 10.146475 139.999863
32 139.999863 -0.000179 0.000000 -16.215326 -1.410003 12.797788 139.999863
[Rope1_Seg03]
31 139.999924 0.000060 -0.000060 7.984047 -8.473628 0.990168 139.999924
32 139.999924 0.000060 -0.000060 1.989245 -5.845103 4.457973 139.999924
[Rope1_Seg04]
31 139.999924 -0.000060 -0.000119 -4.199964 -0.895097 6.357777 139.999924
32 139.999924 -0.000060 -0.000119 -5.250412 -0.566986 6.735074 139.999924
[Rope1_Seg05]
31 139.999832 0.000119 -0.000060 -10.974228 5.185154 12.637136 139.999832
32 139.999832 0.000119 -0.000060 -11.249446 4.826663 11.325239 139.999832
[Rope1_Seg06]
31 139.999954 0.000119 -0.000060 -5.810769 2.105104 9.599195 139.999954
32 139.999954 0.000119 -0.000060 -5.671428 1.809818 7.931457 139.999954
[Rope1_Seg07]
31 139.999985 0.000060 0.000000 -2.051455 0.149761 4.674697 139.999985
32 139.999985 0.000060 0.000000 -2.159796 0.176757 4.035554 139.999985
[Rope1_Seg09]
31 121.602913 0.000119 -0.000089 -89.793175 -1.359789 0.847147 121.602913
32 121.602913 0.000119 -0.000089 -89.793175 -1.359789 0.847147 121.602913
[L_mid_hand01]
31 103.859421 1.038730 8.195221 109.056206 -40.604691 -13.201402 104.187431
32 103.859421 1.038730 8.195221 109.056198 -40.604698 -13.201401 104.187431
[L_mid_hand02]
31 105.572853 -4.139662 -10.864139 -146.713593 31.476528 -37.902313 106.211075
32 105.572853 -4.139662 -10.864139 -146.713593 31.476528 -37.902313 106.211075
[L_mid_hand03]
31 104.641464 17.579376 -3.913581 -14.267233 12.322316 43.898396 106.179977
32 104.641464 17.579376 -3.913581 -14.267233 12.322316 43.898396 106.179977
[null_rope02_connect]
31 328.732849 0.000179 -0.000119 -135.097778 58.141441 -19.085142 328.732849
32 328.732849 0.000179 -0.000119 -135.297928 60.251743 -20.754990 328.732849
[Rope2_Seg01]
31 0.000073 0.000108 0.000019 34.150940 -2.052898 -46.348385 0.000132
32 0.000077 0.000109 0.000016 35.880211 -2.666305 -47.149872 0.000134
[Rope2_Seg02]
31 139.999741 -0.000060 -0.000119 11.672423 1.352503 -4.888180 139.999756
32 139.999741 -0.000060 -0.000119 13.158853 0.686986 -5.462402 139.999756
[Rope2_Seg03]
31 140.000107 0.000030 0.000000 7.354463 1.841816 -3.097164 140.000107
32 140.000107 0.000030 0.000000 6.141802 1.710520 -2.854129 140.000107
[Rope2_Seg04]
31 139.999802 0.000000 -0.000060 10.841611 0.417178 -3.173424 139.999802
32 139.999802 0.000000 -0.000060 11.888863 -0.822723 -3.500647 139.999802
[Rope2_Seg05]
31 139.999985 -0.000060 0.000119 20.098730 -7.982453 -4.400988 139.999985
32 139.999985 -0.000060 0.000119 19.257771 -10.116483 -4.821155 139.999985
[Rope2_Seg06]
31 139.999893 -0.000030 -0.000119 7.512589 -7.767312 -0.737578 139.999893
32 139.999893 -0.000030 -0.000119 6.512937 -8.252457 -0.717013 139.999893
[Rope2_Seg07]
31 139.999893 0.000060 -0.000060 2.896805 -4.037681 -0.135127 139.999893
32 139.999893 0.000060 -0.000060 2.479867 -4.301127 -0.091476 139.999893
[Rope2_Seg09]
31 121.338966 0.000089 -0.000060 33.793236 -1.359788 -0.847141 121.338966
32 121.338966 0.000089 -0.000060 33.793236 -1.359788 -0.847141 121.338966
[R_mid_hand01]
31 104.680779 11.144459 -10.335981 -37.204079 31.906813 37.576260 105.778534
32 104.680779 11.144459 -10.335981 -37.204079 31.906813 37.576260 105.778534
[R_mid_hand02]
31 104.070427 2.443552 8.231699 70.367462 -42.427391 14.067809 104.424065
32 104.070427 2.443552 8.231699 70.367462 -42.427387 14.067807 104.424065
[R_mid_hand03]
31 106.028137 -11.221827 -5.996406 -169.893616 12.226661 -47.211018 106.788818
32 106.028137 -11.221827 -5.996406 -169.893616 12.226661 -47.211018 106.788818
[spine02]
31 129.756927 0.001550 0.000119 0.232567 -4.055648 -11.138925 129.756927
32 129.756927 0.001550 0.000119 0.253717 -4.054517 -11.438190 129.756927
[spine03]
31 78.614075 0.082149 -4.898996 1.820566 3.867947 15.362739 78.766617
32 78.614082 0.082089 -4.898998 1.833018 3.862092 15.548943 78.766624
[pelvis]
31 169.435242 0.051022 0.000000 -0.051412 -0.182134 11.854096 169.435257
32 169.435242 0.051022 0.000000 -0.052620 -0.181708 12.230923 169.435257
[null_rope03_connect]
31 -1.257226 -2.466202 137.391083 37.578045 -81.424095 28.259941 137.418976
32 -1.257226 -2.466202 137.391083 40.838768 -83.340439 24.100920 137.418976
[null_rope04_connect]
31 -1.259640 -2.480268 -137.844437 37.578045 -81.424095 28.259941 137.872513
32 -1.259640 -2.480268 -137.844437 40.838768 -83.340439 24.100920 137.872513
[Rope3_Seg01]
31 0.000010 0.000038 -0.000114 -131.292191 8.111501 -81.948692 0.000121
32 0.000010 0.000038 -0.000114 -131.730515 10.920661 -82.729881 0.000121
[Rope3_Seg02]
31 139.999924 -0.000119 0.000060 0.086361 -1.594499 -2.175989 139.999924
32 139.999924 -0.000119 0.000060 0.075044 -1.748063 -2.215548 139.999924
[Rope3_Seg03]
31 139.999924 -0.000119 0.000119 0.098429 -1.885944 -2.572282 139.999924
32 139.999924 -0.000119 0.000119 0.086974 -2.044533 -2.562382 139.999924
[Rope3_Seg04]
31 139.999924 0.000119 0.000000 0.091234 -4.925363 -0.586401 139.999924
32 139.999924 0.000119 0.000000 0.062515 -5.187770 -1.233949 139.999924
[Rope3_Seg05]
31 139.999924 -0.000238 0.000060 -0.004320 -1.256372 -5.772696 139.999924
32 139.999924 -0.000238 0.000060 -0.043273 -0.510372 -5.470195 139.999924
[Rope3_Seg06]
31 139.999893 -0.000119 -0.000060 -2.388176 6.594903 -10.620373 139.999893
32 139.999893 -0.000119 -0.000060 -1.331196 6.174311 -7.311536 139.999893
[Rope3_Seg07]
31 139.999771 0.000060 -0.000119 -1.179813 3.402479 -5.418912 139.999771
32 139.999771 0.000060 -0.000119 -0.391832 2.819660 -3.719013 139.999771
[Rope3_Seg08]
31 139.999985 -0.000060 0.000000 -0.374560 1.600254 -2.847919 139.999985
32 139.999985 -0.000060 0.000000 0.036016 1.377474 -2.080294 139.999985
[Rope3_Seg09]
31 90.185997 -0.000179 -0.000060 89.793228 -1.359877 -0.847183 90.185997
32 90.185997 -0.000179 -0.000060 89.793228 -1.359877 -0.847183 90.185997
[R_rear_hand01]
31 103.366196 -6.073594 -10.757982 -164.755127 19.627697 -40.352161 104.101845
32 103.366196 -6.073594 -10.757982 -164.755127 19.627697 -40.352161 104.101845
[R_rear_hand02]
31 100.509819 12.039542 -7.992327 -30.792652 24.782448 38.141541 101.543350
32 100.509819 12.039542 -7.992327 -30.792652 24.782448 38.141541 101.543350
[R_rear_hand03]
31 101.539970 5.215704 5.435467 82.448349 -41.048256 8.840378 101.819031
32 101.539970 5.215704 5.435467 82.448334 -41.048244 8.840380 101.819031
[Rope4_Seg01]
31 -0.000011 -0.000013 -0.000153 49.371479 13.365568 -102.418205 0.000154
32 -0.000011 -0.000011 -0.000153 48.379864 15.760658 -106.798874 0.000153
[Rope4_Seg02]
31 139.999985 0.000060 0.000119 -0.177225 0.140535 3.409537 139.999985
32 139.999985 0.000060 0.000119 0.017029 1.485701 3.855631 139.999985
[Rope4_Seg03]
31 139.999924 0.000000 -0.000238 -0.473870 0.202617 5.482794 139.999924
32 139.999924 0.000000 -0.000238 -0.256548 2.373306 6.182814 139.999924
[Rope4_Seg04]
31 139.999985 0.000000 0.000119 -3.864972 6.589728 23.593559 139.999985
32 139.999985 0.000000 0.000119 -3.217660 12.513301 24.607597 139.999985
[Rope4_Seg05]
31 139.999802 -0.000060 -0.000119 2.777904 -15.391434 -12.326453 139.999802
32 139.999802 -0.000060 -0.000119 1.810888 -10.738704 -7.795146 139.999802
[Rope4_Seg06]
31 139.999924 0.000000 0.000060 0.822924 -13.959645 -25.473738 139.999924
32 139.999924 0.000000 0.000060 5.437381 -18.450577 -29.975382 139.999924
[Rope4_Seg07]
31 139.999802 0.000000 0.000000 -1.287862 -3.939845 -6.014351 139.999802
32 139.999802 0.000000 0.000000 -0.840751 -5.107322 -6.677895 139.999802
[Rope4_Seg08]
31 139.999924 0.000000 0.000119 -2.423723 -1.863189 -3.001962 139.999924
32 139.999924 0.000000 0.000119 -2.236090 -2.402995 -3.266875 139.999924
[Rope4_Seg09]
31 90.185791 0.000060 0.000060 -135.617828 2.228885 0.850567 90.185791
32 90.185791 0.000060 0.000060 -135.617828 2.228885 0.850567 90.185791
[L_rear_hand01]
31 101.696655 -8.392275 -7.654577 -31.684452 -23.583008 144.025742 102.329041
32 101.696655 -8.392275 -7.654577 -31.684452 -23.583008 144.025742 102.329041
[L_rear_hand02]
31 102.726799 -1.568258 5.773216 82.701553 38.753956 171.553619 102.900848
32 102.726799 -1.568258 5.773216 82.701553 38.753956 171.553619 102.900848
[L_rear_hand03]
31 104.552910 9.721220 -10.420293 -163.975403 -19.004421 -142.009338 105.519653
32 104.552910 9.721220 -10.420293 -163.975388 -19.004416 -142.009338 105.519653
